<?xml version="1.0" encoding="UTF-8"?><svg id="Layer_2" xmlns="http://www.w3.org/2000/svg" viewBox="0 0 1129.24 470.42"><defs><style>.cls-1,.cls-2,.cls-3{stroke-width:0px;}.cls-2{fill:#fff;}.cls-3{fill:#5bff5f;}</style></defs><g id="Layer_1-2"><path class="cls-2" d="m408.15,433.95s61.17-23.96,99.42-52.51c51.72-38.61,74.25-167.98,24.85-241.98C481.12,62.63,422.37,30.79,332.37,3.79S64.32,102.87,64.32,102.87C18.06,144.49,4.7,223.24.2,279.74s69.61,141.96,69.61,141.96c0,0,141.36,100.93,338.35,12.26Z"/><polyline class="cls-2" points="985.19 106.66 1112.52 106.66 1087.15 230.2 1129.24 230.2 1095.56 380.32 471.24 373.3 535.6 96.07"/><path class="cls-1" d="m503.44,210.93c-5.98-21.06-17.01-41.05-29.47-58.94-4.85-6.96-10.09-13.63-15.7-19.96-.04-.41-.18-.83-.5-1.27-21.47-29.24-49.86-52.79-83.57-66.57-38.42-15.7-80.94-17.16-121.33-9.14-47.49,9.44-92.67,30.75-130.39,61.06-20.01,16.08-38.14,34.74-50.41,57.47-11.84,21.92-19.18,46.78-20.14,71.72-1.56,40.52,15.67,79.76,41.75,110.16,25.09,29.25,59.33,49.11,96.43,58.85,43.26,11.36,90.32,10.63,133.38-1.19,49.01-13.45,93.26-41.61,131.37-74.67,19.13-16.6,37.99-34.93,47.05-59.14,8.13-21.73,7.81-46.23,1.52-68.38Zm-265.95,205.33c-37.68-2.33-75.11-13.01-106.42-34.52-29.98-20.59-53.73-51.17-65.83-85.53-15.43-43.81-6.85-93.05,18.52-131.5,13.56-20.55,32.42-37.56,52.15-52.06,18.54-13.63,38.67-25.09,59.83-34.13,39.4-16.83,83.23-26.22,126.12-21.76,35.58,3.7,69.63,17.75,97.21,40.58,1.51,1.25,2.99,2.52,4.46,3.81-34.59-23.62-76.5-33.42-118.24-32.02-2.42.08-4.85.2-7.28.35-.25-.02-.5-.05-.75-.07-59.54-4.58-118.27,21.11-157.85,61.8-30.3,25.98-54.9,60.32-60.95,99.96-5.47,35.83,3.38,72.93,33.69,95.17,3.06,2.25,6.24,4.3,9.52,6.15,35.29,48.38,95.47,82.39,154.05,83.32-12.64,1.08-25.41,1.24-38.24.45ZM90.62,249.24c1.2,25.21,9.63,49.53,23.12,71.43-3.27-2.5-6.36-5.25-9.23-8.25-11.4-11.94-18.32-27.25-20.96-43.47-5.54-34.03,5.4-66.67,24.22-94.28-12.01,23.13-18.38,48.53-17.14,74.58Zm395.47,48.6c-13.69,19.9-33.38,36.12-52.27,50.9-14.82,11.59-30.44,22.24-46.8,31.57,46.18-34.37,66.26-87.87,72.38-137.95,10.08-82.39-48.26-146.88-126.26-167,18.8,1.65,37.34,5.77,54.99,12.91,39.08,15.82,69.92,46.04,91.07,82.06,10.98,18.7,20.24,38.92,22.67,60.68,2.64,23.61-2.23,47.13-15.79,66.84Z"/><path class="cls-3" d="m283.6,410.94c-51.24,0-106.67-25.93-144.66-67.68-.47-.52-.64-1.25-.43-1.92.44-1.46.84-2.92,1.21-4.46l1.33-5.42c3.16-12.87,8.45-34.4,9.93-41.17,1.6-7.28,6.16-27.07,7.77-32.35,1.27-4.19,1.72-9.04-7.71-18.01-2.78-2.64-5.32-5.19-7.57-7.44-3.71-3.71-6.91-6.91-9.52-8.91-1.49-1.14-3.52-1.69-6.21-1.69-3.88,0-8.41,1.14-12.79,2.24-1.67.42-3.25.82-4.79,1.15-.89.19-8.84,1.93-13.61,2.65-1.04.16-1.84.26-2.46.3-.69.05-1.36.08-1.99.08-3.98,0-6.39-1.02-7.17-3.03-.69-1.79.11-3.75,2.4-5.84,2.56-2.34,5.39-4.65,9.2-7.51,1.93-1.45,3.96-2.93,6.14-4.52,3.53-2.57,7.54-5.49,12.09-8.99.19-.14.44-.31.75-.51,1.58-1.02,3.75-2.41,2.81-6.4-2.1-8.91-3.21-14.28-3.49-16.9-.18-1.66-.35-3.22,31.14-24.66,15.42-10.5,31.9-21.24,34.61-22.84,3.01-1.77,5.34-3.03,7.85-3.03,1.89,0,3.74.72,6.01,2.32,3.6,2.55,11.41,7.83,13.79,9.44,1.28-.58,3.99-2.05,6.24-3.27,5.14-2.79,11.54-6.27,15.18-7.36,3.05-.91,7.61-1.88,11.27-1.88s5.99,1,6.94,2.98c1.05,2.18.16,4.99-2.72,8.6-7.43,9.31-16.15,15.83-19.85,18.3,1.84,2.67,6.63,8.38,8.38,9.52,3.52,2.27,15.15,9,19.44,9.45.6.06,1.15.4,1.48.91.33.51.41,1.14.21,1.72-.63,1.88-3.13,5.69-8.11,12.36-.01.01-.02.03-.03.04.28,1.06,1.13,3.38,1.9,5.47,1.14,3.11,2.56,6.99,3.79,11,3.07,9.95.83,17.13-7.73,24.76-5.08,4.53-9.91,8.15-13.43,10.79-2.01,1.51-3.75,2.81-4.23,3.34-.32.35-.63,1.06-.54,2,.15,1.59,1.42,3.33,3.55,4.91,2.18,1.61,7.18,6.16,12.96,11.43,8.45,7.69,20.02,18.22,23.1,19.62,2.21,1.01,4.08,1.48,5.86,1.48,2.39,0,4.8-.87,7.58-2.75,1.55-1.05,4.5-2.78,8.25-4.96,10.14-5.93,25.46-14.9,32.6-21.71,6.05-5.77,9.82-10.85,12.6-14.87h-21.29c-1.1,0-2-.9-2-2v-5.91c0-1.1.9-2,2-2h11.86c-2.94-3.36-5.48-6.98-7.57-10.81-6.92-12.69-7.8-25-7.33-33.1l.16-2.78c.06-1.06.94-1.88,2-1.88h89.27c1.06,0,1.93.83,2,1.88l.16,2.78c.09,1.5.12,3.03.1,4.56,1.31.05,2.6.27,3.85.64,4.41,1.33,7.43,3.81,8.97,7.36,2.18,5.01.47,10.5-2.19,13.72-1.08,1.31-2.2,2.33-3.63,3.31-4.15,2.84-7.86,4.36-10.84,5.58-.78.32-1.48.61-2.15.9-1.58.69-3.21,1.55-4.86,2.56-1.27,1.82-2.66,3.59-4.14,5.29h11.87c1.1,0,2,.9,2,2v5.91c0,1.1-.9,2-2,2h-24.79c1.94,3.42,3,8.87-2.46,15.85-2.4,3.06-4.9,6.18-7.33,9.21-6.44,8.03-12.51,15.61-14.4,19.28-.88,1.71-1.06,2.95-1.25,4.26-.36,2.45-.74,4.99-4.96,9.08-4.83,4.69-30.43,26.06-42.73,36.33-3.16,2.63-5.42,4.53-6.21,5.2-2.58,2.19-7.38,6.25-13.29,6.25-2.28,0-4.53-.6-6.7-1.79-3.43-1.88-6.12-2.28-7.78-2.28-2.33,0-4.17.78-4.8,2.04-.11.21-.22.43-.33.66-1.45,2.8-2.94,5.69,4.7,12.35,2.36,2.05,6.88,6.09,12.6,11.2,13.35,11.92,33.52,29.94,42.98,37.67.6.49.86,1.27.68,2.02s-.78,1.33-1.53,1.49c-6.11,1.29-12.37,2.36-18.61,3.17-6.3.82-12.8,1.23-19.32,1.23Zm117.73-212.58c-.58,3.31-1.43,6.56-2.54,9.72,1.54-.74,3.17-1.63,4.87-2.79.66-.45,1.1-.85,1.59-1.44.51-.62,1.25-2.27.74-3.45-.34-.77-1.21-1.35-2.74-1.81-.5-.15-1.03-.23-1.58-.23-.11,0-.22,0-.34,0Z"/><path class="cls-1" d="m240.9,125.35c4.77,0,7.86,1.81,2.65,8.33-9.08,11.38-20.1,18.47-20.84,18.8-.75.33,7.16,10.2,9.86,11.95,2.71,1.74,15.21,9.23,20.31,9.76-.93,2.77-7.81,11.76-8.29,12.44-.48.68,3.12,8.89,5.83,17.65,2.7,8.76,1.2,15.23-7.15,22.68-8.35,7.44-16.28,12.61-17.81,14.27-1.52,1.66-2.22,5.79,3.29,9.86,5.51,4.07,30.99,28.78,36.42,31.26,2.37,1.08,4.54,1.66,6.69,1.66,2.79,0,5.55-.97,8.7-3.09,5.57-3.76,31.11-17.35,41.11-26.88,7.92-7.55,12.11-14.08,14.99-18.32h-25.07v-5.91h16.5c-4.14-4.08-7.7-8.73-10.45-13.77-6.7-12.28-7.55-24.19-7.09-32.02l.16-2.78h89.27l.16,2.78c.11,1.94.15,4.13.03,6.51.47-.05.96-.08,1.47-.08,1.22,0,2.52.16,3.87.57,3.82,1.16,6.41,3.25,7.71,6.24,1.84,4.24.37,8.9-1.9,11.65-.96,1.16-1.95,2.06-3.22,2.93-3.98,2.72-7.58,4.2-10.48,5.39-.76.31-1.49.61-2.19.92-1.85.81-3.68,1.8-5.47,2.9-2.16,3.15-4.64,6.09-7.37,8.78h16.5v5.91h-28.95c2.45,2.17,6.97,7.89.13,16.62-8.89,11.34-19.23,23.54-21.93,28.81-2.71,5.27.19,6.98-5.83,12.82-6.02,5.84-44.99,38.17-48.84,41.44-2.83,2.4-7,5.78-11.99,5.78-1.81,0-3.73-.45-5.73-1.54-3.25-1.78-6.25-2.52-8.74-2.52-3.27,0-5.66,1.28-6.59,3.14-1.64,3.29-4.58,7.2,4.84,15.41,8.02,6.99,42.21,37.96,55.63,48.91-5.93,1.25-12.07,2.31-18.46,3.14-6.31.82-12.67,1.22-19.06,1.22-52.51,0-106.62-26.85-143.18-67.02.44-1.44.85-2.95,1.24-4.56,2.72-11.09,9.54-38.76,11.27-46.63,1.69-7.71,6.19-27.12,7.73-32.19,1.54-5.08,1.58-10.69-8.24-20.04-7.39-7.03-12.91-13.18-17.26-16.49-2.01-1.54-4.58-2.1-7.43-2.1-5.63,0-12.35,2.21-18.01,3.44-2.56.56-9.32,1.99-13.49,2.63-.92.14-1.72.24-2.31.29-.65.05-1.26.07-1.84.07-5.04,0-7.34-1.81-3.42-5.39,2.84-2.6,5.79-4.94,9.05-7.38,5.08-3.81,10.91-7.87,18.25-13.52,1.19-.92,5.74-2.79,4.28-8.95-1.45-6.17-3.11-13.5-3.45-16.65-.34-3.15,59.5-42.45,64.78-45.56,2.97-1.75,4.93-2.75,6.84-2.75,1.49,0,2.96.61,4.86,1.95,4.33,3.07,14.53,9.94,14.53,9.94,0,.05.05.07.12.07,1.51,0,16.28-9.12,22.28-10.91,2.68-.8,7.15-1.8,10.7-1.8m154.24,86.5c.09-.04.17-.07.26-.11,2.77-1.14,5.92-2.43,9.38-4.8.81-.56,1.39-1.08,2-1.82.87-1.05,1.92-3.48,1.03-5.52-.77-1.78-2.65-2.52-4-2.93-.74-.22-1.46-.31-2.15-.31-.74,0-1.45.11-2.08.26-.71,4.72-2.07,9.9-4.45,15.23m-154.24-90.5c-3.88,0-8.66,1.01-11.84,1.96-3.83,1.14-10.06,4.53-15.56,7.51-1.74.94-3.76,2.04-5.12,2.73-3.06-2.07-9.6-6.51-12.8-8.77-1.77-1.25-4.18-2.69-7.17-2.69-3.01,0-5.69,1.43-8.87,3.3-2.73,1.6-19.26,12.38-34.72,22.91-8.9,6.06-16.02,11.07-21.17,14.88-9.88,7.31-11.12,8.96-10.83,11.65.29,2.71,1.41,8.15,3.53,17.14.59,2.5-.26,3.18-1.94,4.26-.31.2-.6.38-.89.61-4.52,3.48-8.52,6.39-12.04,8.96-2.17,1.58-4.23,3.08-6.17,4.54-3.86,2.89-6.74,5.25-9.34,7.63-3.68,3.36-3.62,6.23-2.91,8.04,1.11,2.85,4.15,4.3,9.03,4.3.68,0,1.4-.03,2.14-.08.66-.05,1.52-.15,2.62-.32,4.71-.72,12.27-2.35,13.74-2.67,1.57-.34,3.24-.76,4.85-1.17,4.26-1.07,8.67-2.18,12.3-2.18,2.24,0,3.87.42,5,1.28,2.51,1.92,5.67,5.08,9.32,8.74,2.26,2.26,4.81,4.82,7.61,7.48,9.32,8.88,8.08,12.98,7.17,15.99-1.62,5.33-6.2,25.2-7.8,32.5-1.47,6.71-6.73,28.12-9.87,40.92l-1.38,5.62c-.37,1.51-.76,2.94-1.19,4.36-.41,1.35-.08,2.81.87,3.85,18.57,20.41,41.69,37.52,66.84,49.49,25.9,12.32,53.31,18.84,79.29,18.84,6.61,0,13.19-.42,19.58-1.25,6.29-.82,12.61-1.89,18.77-3.2,1.51-.32,2.7-1.47,3.06-2.97.36-1.5-.16-3.07-1.36-4.04-9.43-7.7-29.6-25.72-42.94-37.64-5.71-5.1-10.23-9.14-12.59-11.19-4.14-3.61-5.03-5.77-5.19-6.73-.16-.98.21-1.77.95-3.19.12-.23.24-.46.35-.68.14-.29,1.1-.93,3.01-.93,1.42,0,3.76.35,6.81,2.03,2.46,1.35,5.04,2.04,7.66,2.04,6.64,0,11.8-4.37,14.58-6.72.78-.67,3.07-2.57,6.23-5.21,12.31-10.28,37.93-31.67,42.82-36.41,4.36-4.23,5.07-7.02,5.54-10.23.18-1.25.33-2.23,1.06-3.64,1.79-3.5,8.09-11.36,14.19-18.95,2.43-3.02,4.93-6.15,7.34-9.22,4.42-5.63,5.14-10.84,3.91-15.08h21.77c2.21,0,4-1.79,4-4v-5.91c0-2.21-1.79-4-4-4h-7.65c.45-.59.89-1.19,1.32-1.8,1.45-.87,2.89-1.61,4.28-2.22.66-.29,1.35-.57,2.07-.87,2.93-1.2,6.91-2.84,11.24-5.8,1.57-1.07,2.85-2.24,4.04-3.68,3.05-3.68,5-9.99,2.48-15.79-1.76-4.05-5.29-6.98-10.22-8.47-.8-.24-1.61-.42-2.43-.55-.01-.96-.05-1.91-.1-2.86l-.16-2.78c-.12-2.11-1.88-3.76-3.99-3.76h-89.27c-2.12,0-3.87,1.65-3.99,3.76l-.16,2.78c-.49,8.36.42,21.07,7.57,34.18,1.49,2.73,3.2,5.35,5.11,7.86h-7.64c-2.21,0-4,1.79-4,4v5.91c0,2.21,1.79,4,4,4h17.41c-2.47,3.33-5.66,7.19-10.1,11.42-6.97,6.65-22.79,15.9-32.24,21.43-3.77,2.21-6.75,3.95-8.35,5.03-2.44,1.64-4.49,2.41-6.46,2.41-1.49,0-3.09-.41-5.03-1.3-2.79-1.27-15.18-12.55-22.58-19.28-6.07-5.52-10.86-9.88-13.13-11.56-2.61-1.93-2.94-3.52-2.69-3.97.45-.45,2.3-1.84,3.93-3.06,3.35-2.51,8.42-6.31,13.56-10.9,9.12-8.13,11.6-16.16,8.31-26.84-1.25-4.06-2.68-7.96-3.83-11.1-.57-1.56-1.19-3.26-1.57-4.39,4.79-6.46,7.15-10.11,7.83-12.15.39-1.15.23-2.42-.43-3.44-.66-1.02-1.74-1.69-2.95-1.81-3.42-.35-13.9-6.14-18.56-9.14-1.15-.75-4.51-4.6-6.63-7.35,4.53-3.23,12.09-9.44,18.57-17.54,1.25-1.57,5.06-6.35,2.96-10.72-1.31-2.73-4.25-4.11-8.74-4.11h0Zm-29.16,15.94h0s0,0,0,0h0Zm190.43,66.6c.29-1.09.54-2.19.77-3.29,1.01.34,1.2.61,1.21.62.07.25-.18,1.04-.45,1.37-.37.45-.66.71-1.17,1.06-.12.08-.24.16-.36.24h0Z"/><path class="cls-3" d="m364.73,173.69c-.44,0-.87-.15-1.22-.42l-4.67-3.62c-.87-.68-1.03-1.93-.36-2.8,1.75-2.27,2.57-4.28,2.37-5.83-.22-1.64-1.61-3.13-3.23-4.85-2.41-2.57-5.41-5.77-5.15-10.7.18-3.33,1.81-6.4,4.86-9.13.37-.33.84-.51,1.34-.51.04,0,.07,0,.11,0,.53.03,1.03.27,1.38.66l3.95,4.4c.74.82.67,2.09-.15,2.82-1.38,1.24-1.57,2.01-1.58,2.28-.04.71,1.3,2.13,2.47,3.39,2.19,2.33,5.19,5.53,5.83,10.33.57,4.29-.9,8.73-4.36,13.2-.33.42-.8.69-1.33.76-.08.01-.17.02-.25.02Z"/><path class="cls-1" d="m358.66,137.83l3.95,4.4c-1.42,1.28-2.18,2.51-2.24,3.66-.08,1.49,1.09,2.82,3.01,4.86,2.12,2.26,4.75,5.06,5.3,9.22.49,3.74-.84,7.67-3.96,11.71l-4.68-3.62c2.12-2.74,3.05-5.2,2.77-7.31-.3-2.28-1.98-4.06-3.75-5.95-2.26-2.41-4.83-5.14-4.61-9.23.15-2.78,1.56-5.38,4.2-7.75m0-4c-.98,0-1.94.36-2.67,1.02-3.45,3.1-5.31,6.64-5.52,10.51-.31,5.79,3.15,9.48,5.68,12.18,1.32,1.41,2.57,2.74,2.71,3.74.06.46,0,1.81-1.97,4.34-1.35,1.75-1.03,4.26.72,5.61l4.68,3.62c.7.55,1.57.84,2.45.84.17,0,.34-.01.51-.03,1.05-.13,2.01-.68,2.66-1.52,3.8-4.91,5.4-9.85,4.76-14.68-.72-5.44-4.11-9.05-6.35-11.44-.5-.54-1.35-1.44-1.77-2.02.14-.19.38-.45.76-.8,1.64-1.48,1.78-4,.31-5.65l-3.95-4.4c-.71-.79-1.7-1.27-2.76-1.32-.07,0-.14,0-.22,0h0Z"/><path class="cls-3" d="m351.54,177.15c-.38,0-.76-.11-1.09-.33l-4.95-3.24c-.92-.61-1.18-1.84-.58-2.77,1.23-1.88,1.82-3.54,1.57-4.44-.12-.43-.44-.81-1.4-1.8-1.39-1.44-3.29-3.4-3.96-6.75-.64-3.19.07-6.5,2.09-9.83.27-.45.72-.78,1.23-.91.16-.04.32-.06.48-.06.36,0,.72.1,1.04.29l5.06,3.07c.94.57,1.25,1.8.67,2.75-.67,1.11-.97,2.09-.84,2.76.08.42.4.8,1.36,1.8,1.27,1.31,3,3.1,3.82,6.03,1.07,3.83.12,8.05-2.82,12.53-.38.58-1.02.9-1.67.9Z"/><path class="cls-1" d="m344.94,149.03l5.06,3.07c-.96,1.59-1.33,2.99-1.09,4.18.2,1.02.82,1.69,1.89,2.8,1.18,1.22,2.65,2.74,3.33,5.18.91,3.25.04,6.92-2.57,10.9l-4.95-3.24c1.12-1.72,2.35-4.16,1.82-6.07-.26-.95-.86-1.59-1.88-2.66-1.28-1.33-2.88-2.98-3.43-5.75-.53-2.69.08-5.51,1.83-8.4m0-4c-.32,0-.64.04-.95.12-1.03.25-1.92.9-2.47,1.81-2.29,3.77-3.07,7.56-2.34,11.26.78,3.93,3.01,6.23,4.48,7.75.24.24.69.72.88.96-.04.36-.31,1.3-1.29,2.79-1.21,1.85-.69,4.33,1.15,5.54l4.95,3.24c.66.43,1.42.65,2.19.65.27,0,.55-.03.82-.08,1.04-.22,1.95-.84,2.53-1.72,3.27-4.99,4.31-9.76,3.08-14.17-.95-3.41-2.97-5.5-4.31-6.88-.21-.22-.61-.63-.81-.88.04-.19.17-.6.56-1.25,1.15-1.89.54-4.35-1.35-5.49l-5.06-3.07c-.63-.38-1.35-.58-2.07-.58h0Z"/><path class="cls-1" d="m636.22,168.86c-3.6,3.82-7.91,6.36-12.95,7.62,4.67,1.17,8.25,3.39,10.72,6.68,2.47,3.28,3.71,7.13,3.71,11.53,0,1.44-.14,2.97-.41,4.59-1.44,8.36-5.33,14.81-11.67,19.35-6.34,4.54-14.68,6.81-25.02,6.81h-50.04l16.86-95.49h48.69c8.63,0,15.35,1.69,20.16,5.06,4.81,3.37,7.22,8.29,7.22,14.77,0,1.53-.13,3.19-.4,4.99-.99,5.58-3.28,10.27-6.88,14.09Zm-28.59,24.21c0-3.42-2.29-5.12-6.88-5.12h-13.62l-2.29,13.49h13.62c2.7,0,4.79-.52,6.27-1.55,1.48-1.03,2.4-2.72,2.76-5.06.09-.45.14-1.03.14-1.75Zm4.05-34.26c0-1.8-.56-3.1-1.69-3.91-1.13-.81-2.85-1.21-5.19-1.21h-11.6l-2.43,13.49h11.6c2.7,0,4.81-.54,6.34-1.62,1.53-1.08,2.47-2.74,2.83-4.99.09-.45.14-1.03.14-1.75Z"/><path class="cls-1" d="m693.72,153.69l-2.02,11.87h29.67l-4.05,22.52h-29.67l-2.43,13.49h33.72l-4.18,23.87h-63.66l16.86-95.49h63.66l-4.18,23.74h-33.72Z"/><path class="cls-1" d="m819.05,136.83c5.3,4.59,7.96,10.7,7.96,18.34,0,2.25-.18,4.27-.54,6.07-1.17,6.47-3.96,12.16-8.36,17.06-4.41,4.9-10.12,8.43-17.13,10.59l14.3,36.55h-32.91l-12-34.26-6.07,34.26h-29.94l16.86-95.49h44.51c10.25,0,18.03,2.29,23.33,6.88Zm-45.18,34.39h11.87c2.88,0,5.15-.65,6.81-1.96,1.66-1.3,2.76-3.35,3.3-6.14.09-.45.13-1.03.13-1.75,0-1.98-.63-3.53-1.89-4.65-1.26-1.12-3.1-1.69-5.53-1.69h-11.87l-2.83,16.19Z"/><path class="cls-1" d="m866.97,202.78h28.86l-4.05,22.66h-58.8l16.86-95.49h29.94l-12.81,72.83Z"/><path class="cls-1" d="m956.29,129.95l-16.86,95.49h-29.94l16.86-95.49h29.94Z"/><path class="cls-1" d="m1052.76,225.44h-29.94l-23.2-48.01-8.5,48.01h-29.94l16.86-95.49h29.94l23.06,48.82,8.63-48.82h29.94l-16.86,95.49Z"/><path class="cls-1" d="m611.74,293l26.43,49.77h-35.61l-20.5-41.54-7.28,41.54h-29.94l16.86-95.49h29.94l-7.15,40.19,34.53-40.19h33.85l-41.14,45.72Z"/><path class="cls-1" d="m710.47,328.33h-31.83l-7.28,14.43h-31.42l51.79-95.49h34.53l17.94,95.49h-31.56l-2.16-14.43Zm-3.24-22.52l-3.91-26.57-13.35,26.57h17.26Z"/><path class="cls-1" d="m835.22,247.27l-4.18,23.74h-37.49l-2.29,13.22h26.97l-4.05,22.52h-26.97l-6.34,36.01h-29.94l16.86-95.49h67.44Z"/><path class="cls-1" d="m916.01,247.27l-4.18,23.74h-37.5l-2.29,13.22h26.97l-4.05,22.52h-26.97l-6.34,36.01h-29.94l16.86-95.49h67.44Z"/><path class="cls-1" d="m953.87,271.01l-2.02,11.87h29.67l-4.05,22.52h-29.67l-2.43,13.49h33.72l-4.18,23.87h-63.66l16.86-95.49h63.66l-4.18,23.74h-33.72Z"/><path class="cls-1" d="m1032.09,271.01l-2.02,11.87h29.67l-4.05,22.52h-29.67l-2.43,13.49h33.72l-4.18,23.87h-63.66l16.86-95.49h63.66l-4.18,23.74h-33.72Z"/></g></svg>